# xmcd CD database file
#
# Track frame offsets:
#	150
#	12533
#	26326
#	36821
#	50839
#	63173
#	78075
#	92970
#	104937
#	122752
#	134195
#	147723
#
# Disc length: 2151 seconds
#
# Revision: 0
# Processed by: cddbd v1.5.2PL0 Copyright (c) Steve Scherf et al.
# Submitted via: CDex 1.70beta2
#
DISCID=b508650c
DTITLE=Paul Brunelle - Tradition country
DYEAR=1900
DGENRE=Country
TTITLE0=Un Par Un
TTITLE1=Mon Enfant Je Te Pardonne
TTITLE2=Reine De Mon Coeur
TTITLE3=Le Destin Cruel
TTITLE4=Je Chante En Me Reveillant
TTITLE5=Des Roses Rouges Pour Toi Maman
TTITLE6=Maman Chérie
TTITLE7=Quand Revient Le Printemps
TTITLE8=Nouveaux Mariés
TTITLE9=Suzanne
TTITLE10=Mon Dieu
TTITLE11=Tu Es Mon Soleil
EXTD=
EXTT0=
EXTT1=
EXTT2=
EXTT3=
EXTT4=
EXTT5=
EXTT6=
EXTT7=
EXTT8=
EXTT9=
EXTT10=
EXTT11=
PLAYORDER=
